# xmcd
#
# Track frame offsets: 
#        182
#        25585
#        50732
#        71822
#        93955
#        123217
#        147307
#        172455
#
# Disc length: 2573 seconds
#
# Revision: 1
# Processed by: cddbd v1.5.1PL0 Copyright (c) Steve Scherf et al.
# Submitted via: ExactAudioCopy v0.95a5
#
DISCID=730a0b08
DTITLE=Grupo Niche - Me huele A Matrimónio
DYEAR=1993
DGENRE=Salsa
TTITLE0=Me Huele a Matrimónio
TTITLE1=Un Caso Social
TTITLE2=Bendita Seas
TTITLE3=Tongolele
TTITLE4=Ese Dia
TTITLE5=Para mi Negra un Son
TTITLE6=La Trampa
TTITLE7=La Rata Chillona
EXTD=YEAR: 70
EXTT0=
EXTT1=
EXTT2=
EXTT3=
EXTT4=
EXTT5=
EXTT6=
EXTT7=
PLAYORDER=
